<svg xmlns="http://www.w3.org/2000/svg" viewBox="0 0 514.72 531.38"><defs><style>.cls-1{fill:#1d1d1b;}</style></defs><g id="Capa_2" data-name="Capa 2"><g id="Capa_1-2" data-name="Capa 1"><path class="cls-1" d="M99.78,93.48,95,88.3l15.9-14.78,4.81,5.18Zm42.4,40q-7.73,7.19-15.78,6.75T111,131.85l5.44-5.06q5.19,5.58,10.67,6t10.66-4.4q5-4.7,5-10.11t-5.28-11L108.28,75.93l5.41-5,29.12,31.33q7.41,8,7.22,16.06T142.18,133.5Z" transform="translate(-30.39 -9.61)"/><path class="cls-1" d="M180.2,105.38q-6.85,3.72-12.73,1.78T157.68,98L142.54,70.14l6.89-3.74,15.14,27.87c1.55,2.84,3.53,4.6,6,5.27s5.09.23,8-1.35q5.22-2.84,6.14-7.5t-3.22-12.28l8.34,10.22-2.63,1.42a13.09,13.09,0,0,1-.58,8.85A14.1,14.1,0,0,1,180.2,105.38ZM185.54,86,169.1,55.71,176,52l15.85,29.19Zm7.42,12-6.21-9.73-4-7.4,6.89-3.75,6,11.07,6.2-2.44,2.9,5.34Z" transform="translate(-30.39 -9.61)"/><path class="cls-1" d="M211.42,89.12l-11.61-46.6,6.9-1.72,3.16,9.67L219,87.23Zm29.67-7.39-7.56-30.38q-1.22-4.89-4.43-6.91a9.73,9.73,0,0,0-7.83-.87Q208.91,46.65,212.48,61l-5.73-11.23,3.47-.86a10.12,10.12,0,0,1,2.14-8q2.65-3.12,8.51-4.57,7.65-1.91,12.94,1.54t7.33,11.62l7.56,30.34Z" transform="translate(-30.39 -9.61)"/><path class="cls-1" d="M260.46,78.25l.11-6.62,19.75.32-.1,6.62Zm3.39-41.37.11-6.61,23.92.38-.11,6.62Zm19.87-15.36a5.76,5.76,0,0,1-4.18-1.81,5.66,5.66,0,0,1-1.7-4.22,6,6,0,1,1,12,.2,5.94,5.94,0,0,1-6.08,5.83Zm-4.41,57,.74-45.48,7.79.12-.74,45.49Zm6.89.12.1-6.62,16.22.26-.1,6.62Z" transform="translate(-30.39 -9.61)"/><path class="cls-1" d="M329.58,86.06q-9.46-2.49-13.05-10.2T316,56.69q3-11.52,10-16.42t16.38-2.4q9.51,2.52,13.08,10.19t.53,19.19q-3,11.48-9.94,16.4T329.58,86.06Zm1.82-6.88a10.67,10.67,0,0,0,10.17-2.11q4.33-3.66,6.52-11.89t.21-13.56a11.61,11.61,0,0,0-18-4.75q-4.35,3.66-6.52,11.89t-.21,13.56A10.66,10.66,0,0,0,331.4,79.18Z" transform="translate(-30.39 -9.61)"/><path class="cls-1" d="M356.14,92.71l3.24-5.77L387,102.47l-3.24,5.77Zm9.8,5.5,23.53-41.88L395,59.42l-5.45,12.74L372.74,102ZM378,57.48l3.24-5.76L394.13,59,391.44,65ZM382.86,84l4.91-14.49,3.09,1.73q7.58-10.92,18.45-4.81c4.39,2.47,6.89,5.5,7.47,9.08S416.1,83.67,413,89.2l-6.8-3.82q2.91-5.17,2.56-8.39t-4-5.27a10.61,10.61,0,0,0-11.28,0Q387.9,75,382.86,84Z" transform="translate(-30.39 -9.61)"/><path class="cls-1" d="M438.14,156.4l54.62-34,3.9,6.27-54.62,34Zm3.56,5.74,6-3.74,8.05,12.93q3.45,5.53,7.88,7a10.3,10.3,0,0,0,9-1.39q4.85-3,5.59-7.77t-2.82-10.5l-7.76-12.46,2.31-2.72,9.29,14.93q5.06,8.11,4.19,14.79T476,184q-7.11,4.42-13.72,2.48t-11.58-9.95Zm26.17-18.85,3-1.87,10.25,16.47-3,1.86Zm2.88.77,2.81-1.75L480,152.66q3.06,4.92,7,6.25a9.11,9.11,0,0,0,8-1.22,8.51,8.51,0,0,0,4.37-6.56q.42-4.11-2.75-9.18L490.42,132l5.43-4.65,6.83,11q5.07,8.16,4.27,14.84T499.57,164c-3.77,2.34-7.52,2.83-11.24,1.44s-7.11-4.52-10.16-9.42Z" transform="translate(-30.39 -9.61)"/><path class="cls-1" d="M466.48,212.25q-2.22-7-.07-11.95t8.2-6.79q7.26-2.28,12.7,1.81t8.54,14a62.51,62.51,0,0,1,2,8.06,26.83,26.83,0,0,1,.45,6.42l-5.75.28a27.45,27.45,0,0,0-1-6.46q-.92-3.35-1.93-6.59-4.09-13.1-12.4-10.5a6.46,6.46,0,0,0-4.42,3.86,10.44,10.44,0,0,0,.19,6.91,18.69,18.69,0,0,0,4,7.3,13.06,13.06,0,0,0,5.6,3.7,9.53,9.53,0,0,0,5.88.06l5.15-1.61-10.87,6.54-1.11-3.55,1.58.79a11.31,11.31,0,0,1-7-.17,13.33,13.33,0,0,1-5.77-4.32A23.51,23.51,0,0,1,466.48,212.25Zm5.77,16.9,14.88-5.38,1.88-1.58,11.16-3.5q5.83-1.83,7.4-6.16T507,200.89l-3-10.42,7-1.25,2.66,8.95q3.36,11.34.29,18.19t-12.63,9.85l-20.28,6.35,1.63,8.09-5.8,1.81Z" transform="translate(-30.39 -9.61)"/><path class="cls-1" d="M477.62,272.81q-.62-12.22,5.45-19.06t18.24-7.47q11.76-.61,18.6,5.28T527.34,269a24.93,24.93,0,0,1-2,11.92,15.08,15.08,0,0,1-7,7.37l-4.85-5.92a14.21,14.21,0,0,0,5.29-5.86,15.6,15.6,0,0,0,1.43-7.51q-.39-7.47-5.08-11.35t-13-3.47q-9,.47-13.41,5.36t-4,13.68a66,66,0,0,0,.72,6.91c.35,2.28.79,4.51,1.29,6.69l-6.92,1.27a52.06,52.06,0,0,1-1.55-7.59Q477.82,276.56,477.62,272.81Z" transform="translate(-30.39 -9.61)"/><path class="cls-1" d="M471.76,332.46l26.06-8.7,1.78,7.7-29.75,10.46Zm6.72-33.36,66.63,13.44-1.53,7.59L477,306.7Zm17.33,8.53,7,1.41-1.13,5.6a25.45,25.45,0,0,0-.11,11.42,15.34,15.34,0,0,0,5.55,8.14,42.31,42.31,0,0,0,12.06,6.2l-1.61,8q-14.29-5-20-13.08T494.32,315Z" transform="translate(-30.39 -9.61)"/><path class="cls-1" d="M455.71,369.64q5.28-10.87,14.06-13.94t19.65,2.22q10.54,5.13,13.92,13t-1.06,17q-4.18,8.59-11.73,10.75T473.15,396a47.34,47.34,0,0,1-4.78-2.63l15.12-31.09,5.62,2.73-12.06,24.82q6.39,3.1,11.33,1.78t7.54-6.71q2.91-6,.44-11.27t-9.93-8.91q-8-3.9-14.47-1.52t-10.41,10.53a46.21,46.21,0,0,0-2.22,5.35q-1,2.77-1.71,5.64l-6.76-2.18a62.86,62.86,0,0,1,2.26-6.91Q454.4,372.34,455.71,369.64Z" transform="translate(-30.39 -9.61)"/><path class="cls-1" d="M423.7,416.63l23.86,20.27q3.84,3.25,7.62,3c2.53-.15,4.82-1.44,6.88-3.85q8.24-9.7-3-19.27l11.21,5.77-2.32,2.73a10.13,10.13,0,0,1,2.91,7.73q-.34,4.08-4.24,8.68-5.12,6-11.42,6.29t-12.73-5.16l-23.83-20.24Zm19.8-23.31,36.6,31.1-4.6,5.42-8.21-6-28.87-24.53Z" transform="translate(-30.39 -9.61)"/><path class="cls-1" d="M383.61,448.7l6.86,8L424,504l-6.4,4.53L378.23,453Zm12.54-9.43q7.68-5.44,15.25-3.19t14.53,12.09q7.21,10.2,6.94,18.29t-8,13.55q-4.81,3.4-9.3,3.3a11.19,11.19,0,0,1-8-3.69l-2.89,2-5.48-12.61q4.81,6.81,10,8.41t10.41-2.12q5.25-3.72,5.24-9.46t-5.29-13.21q-5-7.1-10.33-8.82t-10.55,2q-5.2,3.69-5.42,9.08t4.61,12.2l-10.33-8.95,3.18-2.25a11.21,11.21,0,0,1-.94-8.74Q391.11,442.82,396.15,439.27Z" transform="translate(-30.39 -9.61)"/><path class="cls-1" d="M314.56,475.81l.78,7-8.43.93q-10.57,1.17-15.23,7.77t-3.32,18.63q1.42,13,7.46,18.82t16.61,4.68l8.24-.91,1.86,6.91-9.32,1Q284.29,543.9,280.66,511q-3.44-31.08,25.48-34.27Zm6.71-.74,7.07,64-7.34.81-7.07-64Z" transform="translate(-30.39 -9.61)"/><path class="cls-1" d="M246,475.06q12,1.69,17.6,9.09t3.94,19.38q-1.63,11.63-8.05,17.24T243.06,525q-9.47-1.34-13.84-7.85t-2.84-17.37a48.79,48.79,0,0,1,1-5.35l34.24,4.81-.87,6.19-27.33-3.84q-1,7.05,1.8,11.33T244,518q6.59.93,10.86-3t5.41-12.19q1.25-8.83-3-14.24T244,481.87a49.7,49.7,0,0,0-5.77-.47q-2.94-.07-5.9.11v-7.09a63.06,63.06,0,0,1,7.28,0Q243.08,474.66,246,475.06Z" transform="translate(-30.39 -9.61)"/><path class="cls-1" d="M206.87,465.4,205,516.64l-7.7-3.19,2.41-43.79-.63-.26-29.24,32.66-7.7-3.19,35-37.5Z" transform="translate(-30.39 -9.61)"/><path class="cls-1" d="M155.24,434.94q9.66,7.28,11,16.47t-5.94,18.86q-7.06,9.38-15.4,11.19t-16.44-4.3q-7.65-5.76-8.31-13.57T126.07,447a48.34,48.34,0,0,1,3.49-4.18l27.62,20.79-3.76,5-22-16.6q-4.27,5.69-3.91,10.78t5.14,8.69q5.33,4,11,2.6t10.64-8q5.37-7.14,4.27-13.92t-8.34-12.23a49.2,49.2,0,0,0-4.82-3.21c-1.7-1-3.43-1.91-5.21-2.76l3.42-6.21a63.79,63.79,0,0,1,6.36,3.54Q152.86,433.14,155.24,434.94Z" transform="translate(-30.39 -9.61)"/><path class="cls-1" d="M117.9,396.45q5.14,6.44,4.09,12.19t-8.41,11.63L74.06,451.9l-4.87-6.09,39.27-31.42a18.62,18.62,0,0,0,4.46-4.79,6.8,6.8,0,0,0,.89-4.92,14.07,14.07,0,0,0-3.08-5.8,36.37,36.37,0,0,0-7.13-6.37l4.85-5a43.41,43.41,0,0,1,5,4.1A50.09,50.09,0,0,1,117.9,396.45ZM88.39,459.23l-5.16,4.13-9.68-12.1,5.16-4.13Z" transform="translate(-30.39 -9.61)"/><path class="cls-1" d="M96.91,360.18q4,8.93.3,16.57t-14.54,12.5q-10.87,4.89-19,2.6T51.46,380.64q-4-9-.33-16.57t14.58-12.5q10.82-4.87,19-2.61T96.91,360.18Zm-6.48,2.92a10.67,10.67,0,0,0-8.05-6.56c-3.72-.71-8.16.09-13.34,2.43s-8.74,5.12-10.67,8.37A11.61,11.61,0,0,0,66,384.28q5.56,1.08,13.34-2.42T90,373.48A10.68,10.68,0,0,0,90.43,363.1Z" transform="translate(-30.39 -9.61)"/><path class="cls-1" d="M61.76,320.09l-14.35,5.3-.6-3.48q-13.25,1-15.35-11.3-1.28-7.47,2.35-11.53t13-5.67l1.32,7.68q-5.85,1-8.13,3.3c-1.51,1.53-2,3.68-1.56,6.45a10.61,10.61,0,0,0,7.14,8.73Q51.63,321.82,61.76,320.09Zm21.68,4.2L36.1,332.38,35,326.17l13.32-3.79,33.77-5.77ZM44.21,340.56l-6.52,1.11L35.2,327.11l6.41-1.74Zm41.13-5.19-6.52,1.11-5.35-31.26L80,304.1Z" transform="translate(-30.39 -9.61)"/><path class="cls-1" d="M80.49,257.72q-1,12.06-8,18.11T53.35,280.9q-11.7-.94-17.69-7t-5.17-16.19q.77-9.52,7-14.28t17.18-3.86a47.86,47.86,0,0,1,5.4.71L57.3,274.72l-6.23-.5,2.21-27.51q-7.08-.57-11.2,2.46t-4.58,9q-.54,6.63,3.68,10.66t12.49,4.69q8.89.72,14-3.85t5.87-13.59a50.58,50.58,0,0,0,.12-5.79q-.11-2.94-.46-5.88l7.09-.43a63.11,63.11,0,0,1,.41,7.26Q80.73,254.75,80.49,257.72Z" transform="translate(-30.39 -9.61)"/><path class="cls-1" d="M43.39,219.72l-6.25-2.16,4.84-14,6.46,1.57Zm42.22,4.65L40.23,208.65l2.06-6,13.5,3.1L88.16,217Zm-17-14.12L53.5,208l1.16-3.34q-12.09-5.53-8-17.31,2.48-7.14,7.62-9t14.13,1.29L65.84,187q-5.61-2-8.7-1c-2.07.61-3.56,2.25-4.48,4.9A10.62,10.62,0,0,0,54.71,202Q58.93,206.88,68.64,210.25ZM81.93,235l-6.25-2.16,10.38-30L92.32,205Z" transform="translate(-30.39 -9.61)"/></g></g></svg>